<svg width="276" height="130" viewBox="0 0 276 130" fill="none" xmlns="http://www.w3.org/2000/svg">
<path d="M80.66 66.8V55.308H80.244L72.6 73.976L64.956 55.308H64.54V66.8V85H60.536V48.704H66.152L72.548 64.72H72.86L79.256 48.704H84.664V85H80.66V66.8ZM92.8597 85V48.704H115.22V52.5H97.2277V64.72H114.596V68.516H97.2277V81.204H115.22V85H92.8597ZM128.407 85H124.039V48.704H137.247C140.61 48.704 143.175 49.6227 144.943 51.46C146.711 53.2973 147.595 55.8627 147.595 59.156C147.595 62.1027 146.833 64.46 145.307 66.228C143.782 67.996 141.563 69.0187 138.651 69.296L147.907 85H143.019L134.179 69.504H128.407V85ZM137.143 65.812C138.981 65.812 140.402 65.3613 141.407 64.46C142.447 63.524 142.967 62.2067 142.967 60.508V57.804C142.967 56.1053 142.447 54.8053 141.407 53.904C140.402 52.968 138.981 52.5 137.143 52.5H128.407V65.812H137.143ZM167.335 85.624C162.898 85.624 159.587 84.012 157.403 80.788C155.254 77.564 154.179 72.9187 154.179 66.852C154.179 60.7853 155.254 56.14 157.403 52.916C159.587 49.692 162.898 48.08 167.335 48.08C168.999 48.08 170.438 48.3053 171.651 48.756C172.864 49.2067 173.904 49.8133 174.771 50.576C175.638 51.3387 176.366 52.2053 176.955 53.176C177.544 54.112 178.064 55.0653 178.515 56.036L174.771 57.752C174.459 56.9547 174.095 56.2093 173.679 55.516C173.263 54.788 172.76 54.164 172.171 53.644C171.616 53.0893 170.94 52.656 170.143 52.344C169.38 52.032 168.444 51.876 167.335 51.876C164.458 51.876 162.308 52.968 160.887 55.152C159.5 57.336 158.807 60.248 158.807 63.888V69.816C158.807 73.456 159.5 76.368 160.887 78.552C162.308 80.736 164.458 81.828 167.335 81.828C168.444 81.828 169.38 81.672 170.143 81.36C170.94 81.048 171.616 80.632 172.171 80.112C172.76 79.5573 173.263 78.9333 173.679 78.24C174.095 77.512 174.459 76.7493 174.771 75.952L178.515 77.668C178.064 78.6733 177.544 79.644 176.955 80.58C176.366 81.516 175.638 82.3653 174.771 83.128C173.904 83.8907 172.864 84.4973 171.651 84.948C170.438 85.3987 168.999 85.624 167.335 85.624ZM190.247 48.704V70.492C190.247 72.26 190.299 73.8373 190.403 75.224C190.507 76.6107 190.784 77.8067 191.235 78.812C191.685 79.7827 192.379 80.528 193.315 81.048C194.285 81.568 195.62 81.828 197.319 81.828C199.017 81.828 200.335 81.568 201.271 81.048C202.241 80.528 202.952 79.7827 203.403 78.812C203.853 77.8067 204.131 76.6107 204.235 75.224C204.339 73.8373 204.391 72.26 204.391 70.492V48.704H208.759V69.452C208.759 72.156 208.62 74.5133 208.343 76.524C208.1 78.5347 207.563 80.216 206.731 81.568C205.933 82.92 204.772 83.9427 203.247 84.636C201.756 85.2947 199.78 85.624 197.319 85.624C194.857 85.624 192.864 85.2947 191.339 84.636C189.848 83.9427 188.687 82.92 187.855 81.568C187.057 80.216 186.52 78.5347 186.243 76.524C186 74.5133 185.879 72.156 185.879 69.452V48.704H190.247ZM221.946 85H217.578V48.704H230.786C234.149 48.704 236.714 49.6227 238.482 51.46C240.25 53.2973 241.134 55.8627 241.134 59.156C241.134 62.1027 240.372 64.46 238.846 66.228C237.321 67.996 235.102 69.0187 232.19 69.296L241.446 85H236.558L227.718 69.504H221.946V85ZM230.682 65.812C232.52 65.812 233.941 65.3613 234.946 64.46C235.986 63.524 236.506 62.2067 236.506 60.508V57.804C236.506 56.1053 235.986 54.8053 234.946 53.904C233.941 52.968 232.52 52.5 230.682 52.5H221.946V65.812H230.682ZM257.494 85V70.752L244.962 48.704H249.954L255.154 58.168L259.574 66.436H259.782L264.306 58.168L269.506 48.704H274.394L261.862 70.752V85H257.494Z" fill="black"/>
<g clip-path="url(#clip0_1_33)">
<path d="M65 130C100.899 130 130 100.899 130 65C130 29.1015 100.899 0 65 0C29.1015 0 0 29.1015 0 65C0 100.899 29.1015 130 65 130Z" fill="#F9BA48"/>
<path d="M64.3856 11.9662L61.4206 9.00117C42.598 27.8238 31.8771 44.8475 31.7701 45.0175L35.3263 47.242C35.4292 47.0746 45.8982 30.4536 64.3856 11.9662Z" fill="#333333"/>
<path d="M27.0818 64.7566C30.1704 64.0267 32.5984 61.5969 33.3153 58.5021C37.5445 58.0492 49.8947 57.0428 64.7691 58.6949L65.2327 54.5266C50.1421 52.8535 37.8573 53.7968 33.1837 54.2939C32.1688 50.8026 28.9778 48.226 25.1617 48.226C24.1047 48.226 23.1046 48.4439 22.1738 48.8006C21.1168 44.238 19.5193 34.7858 20.9513 23.3248L16.7914 22.8048C15.0615 36.6478 17.4667 47.6201 18.5277 51.5432C17.7477 52.5621 17.1816 53.7448 16.9342 55.0533C14.0533 56.1371 7.24523 59.406 0.461792 67.8836L3.73694 70.5045C9.092 63.8115 14.4533 60.7229 17.3029 59.4418C17.9111 61.1257 19.0141 62.5724 20.4734 63.5618C18.7707 67.5793 14.678 78.8555 14.678 94.3551H18.8714C18.8714 84.0705 20.8108 75.6685 22.4987 70.3009C21.9997 81.7306 22.5049 103.648 31.7075 120.519L35.3894 118.512C24.8153 99.1248 26.4674 71.613 27.0818 64.7566ZM29.3546 56.6128C29.3546 58.9254 27.4738 60.8062 25.1612 60.8062C22.8486 60.8062 20.9678 58.9254 20.9678 56.6128C20.9678 54.3002 22.8486 52.4194 25.1612 52.4194C27.4738 52.4194 29.3546 54.3002 29.3546 56.6128Z" fill="#333333"/>
<path d="M57.2272 122.227L60.1922 125.192C64.4823 120.9 68.6654 114.654 68.8412 114.389L65.3522 112.064C65.3101 112.125 61.2277 118.227 57.2272 122.227Z" fill="#333333"/>
<path d="M90.1106 61.2613L86.0179 60.3511C81.9481 78.6662 73.7456 93.1697 73.6638 93.3142L77.3036 95.3941C77.654 94.7847 85.8962 80.2244 90.1106 61.2613Z" fill="#333333"/>
<path d="M77.522 105.419C77.5408 105.226 77.5806 105.037 77.5806 104.838C77.5806 104.645 77.5408 104.463 77.5238 104.276C80.5116 103.171 87.5569 99.9236 95.8371 91.6433L92.8721 88.6783C84.8227 96.7276 78.0478 99.6359 75.779 100.445C74.6362 99.2774 73.0489 98.5476 71.2899 98.5476C69.6082 98.5476 68.0881 99.2206 66.9577 100.299C63.1854 98.267 50.058 90.7644 41.4484 80.4315L38.2278 83.1174C47.4599 94.1944 61.1516 101.961 65.0792 104.056C65.0456 104.313 64.9996 104.569 64.9996 104.838C64.9996 108.306 67.8218 111.128 71.2899 111.128C73.0364 111.128 74.6174 110.409 75.758 109.256C78.9911 110.365 89.5043 113.655 100.529 113.655C102.76 113.655 105.016 113.521 107.232 113.205L106.639 109.053C94.9377 110.733 81.6272 106.78 77.522 105.419ZM71.2903 106.935C70.1349 106.935 69.1934 105.996 69.1934 104.838C69.1934 103.681 70.1349 102.741 71.2903 102.741C72.4457 102.741 73.3872 103.681 73.3872 104.838C73.3868 105.996 72.4457 106.935 71.2903 106.935Z" fill="#333333"/>
<path d="M96.3674 32.2758C96.405 32.0033 96.4511 31.7348 96.4511 31.452C96.4511 27.984 93.6288 25.1617 90.1608 25.1617C88.9951 25.1617 87.9171 25.5013 86.9823 26.0549C83.8141 23.9705 77.8657 20.4501 71.7995 18.934L70.7824 22.9999C75.9804 24.2998 81.2598 27.357 84.2732 29.3027C84.0258 29.978 83.8705 30.6948 83.8705 31.452C83.8705 34.92 86.6928 37.7423 90.1608 37.7423C91.8236 37.7423 93.325 37.0818 94.4508 36.0271C97.5689 37.9455 107.277 44.7705 115.586 59.7291L119.251 57.693C110.204 41.405 99.6972 34.2488 96.3674 32.2758ZM90.1612 33.5485C89.0058 33.5485 88.0643 32.6092 88.0643 31.4515C88.0643 30.2943 89.0058 29.3546 90.1612 29.3546C91.3166 29.3546 92.2582 30.2939 92.2582 31.4515C92.2577 32.6092 91.3166 33.5485 90.1612 33.5485Z" fill="#333333"/>
<path d="M103.478 29.4871L102.006 33.4142C102.167 33.4728 118.164 39.56 124.009 49.3035L127.605 47.1458C121.013 36.1609 104.191 29.7551 103.478 29.4871Z" fill="#333333"/>
<path d="M29.2481 30.0174L25.2704 28.6901C23.0898 35.2301 23.0648 45.6865 23.0648 46.1291H27.2581C27.2581 46.0284 27.2854 35.9072 29.2481 30.0174Z" fill="#333333"/>
<path d="M102.962 76.6431C101.048 80.4741 97.1035 84.4473 97.0637 84.4849L100.031 87.4499C100.211 87.2696 104.49 82.9648 106.715 78.5177L102.962 76.6431Z" fill="#333333"/>
<path d="M82.66 66.8V55.308H82.244L74.6 73.976L66.956 55.308H66.54V66.8V85H62.536V48.704H68.152L74.548 64.72H74.86L81.256 48.704H86.664V85H82.66V66.8ZM94.8597 85V48.704H117.22V52.5H99.2277V64.72H116.596V68.516H99.2277V81.204H117.22V85H94.8597ZM130.407 85H126.039V48.704H139.247C142.61 48.704 145.175 49.6227 146.943 51.46C148.711 53.2973 149.595 55.8627 149.595 59.156C149.595 62.1027 148.833 64.46 147.307 66.228C145.782 67.996 143.563 69.0187 140.651 69.296L149.907 85H145.019L136.179 69.504H130.407V85ZM139.143 65.812C140.981 65.812 142.402 65.3613 143.407 64.46C144.447 63.524 144.967 62.2067 144.967 60.508V57.804C144.967 56.1053 144.447 54.8053 143.407 53.904C142.402 52.968 140.981 52.5 139.143 52.5H130.407V65.812H139.143Z" fill="#F1F1F1"/>
</g>
<defs>
<clipPath id="clip0_1_33">
<rect width="130" height="130" fill="white"/>
</clipPath>
</defs>
</svg>
